<?xml version="1.0" encoding="UTF-8"?><svg xmlns="http://www.w3.org/2000/svg" xmlns:xlink="http://www.w3.org/1999/xlink" fill-opacity="1" color-rendering="auto" color-interpolation="auto" text-rendering="auto" stroke="black" stroke-linecap="square" width="847" stroke-miterlimit="10" shape-rendering="auto" stroke-opacity="1" fill="black" stroke-dasharray="none" font-weight="normal" stroke-width="1" height="573" font-family="'Dialog'" font-style="normal" stroke-linejoin="miter" font-size="12px" stroke-dashoffset="0" image-rendering="auto">
  <!--Generated by ySVG 2.5-->
  <defs id="genericDefs"/>
  <g>
    <defs id="defs1">
      <clipPath clipPathUnits="userSpaceOnUse" id="clipPath1">
        <path d="M0 0 L847 0 L847 573 L0 573 L0 0 Z"/>
      </clipPath>
      <clipPath clipPathUnits="userSpaceOnUse" id="clipPath2">
        <path d="M415 126 L1262 126 L1262 699 L415 699 L415 126 Z"/>
      </clipPath>
      <clipPath clipPathUnits="userSpaceOnUse" id="clipPath3">
        <path d="M483 141 L483 204 L749 204 L749 141 Z"/>
      </clipPath>
      <clipPath clipPathUnits="userSpaceOnUse" id="clipPath4">
        <path d="M702 233 L702 314 L840 314 L840 233 Z"/>
      </clipPath>
      <clipPath clipPathUnits="userSpaceOnUse" id="clipPath5">
        <path d="M528 375 L528 438 L705 438 L705 375 Z"/>
      </clipPath>
      <clipPath clipPathUnits="userSpaceOnUse" id="clipPath6">
        <path d="M617 521 L617 602 L794 602 L794 521 Z"/>
      </clipPath>
      <clipPath clipPathUnits="userSpaceOnUse" id="clipPath7">
        <path d="M617 647 L617 684 L794 684 L794 647 Z"/>
      </clipPath>
    </defs>
    <g fill="white" text-rendering="geometricPrecision" shape-rendering="geometricPrecision" transform="translate(-415,-126)" stroke="white">
      <rect x="415" width="847" height="573" y="126" clip-path="url(#clipPath2)" stroke="none"/>
    </g>
    <g text-rendering="geometricPrecision" stroke-miterlimit="1.45" shape-rendering="geometricPrecision" transform="matrix(1,0,0,1,-415,-126)" stroke-linecap="butt">
      <rect fill="none" x="483.5" width="266" height="63" y="141.8672" clip-path="url(#clipPath2)"/>
      <text x="587.0342" font-size="13px" y="159.4355" clip-path="url(#clipPath3)" font-family="sans-serif" stroke="none" font-weight="bold" xml:space="preserve">BagStore</text>
      <line stroke-linecap="square" clip-path="url(#clipPath3)" fill="none" x1="484" x2="748" y1="167" y2="167" stroke-miterlimit="10"/>
      <text x="488.5" xml:space="preserve" y="183.7793" clip-path="url(#clipPath3)" font-family="sans-serif" stroke="none">base-dir</text>
      <text x="488.5" xml:space="preserve" y="197.9121" clip-path="url(#clipPath3)" font-family="sans-serif" stroke="none">slash-pattern</text>
      <line stroke-linecap="square" clip-path="url(#clipPath3)" fill="none" x1="484" x2="748" y1="205" y2="205" stroke-miterlimit="10"/>
      <rect fill="none" x="702" width="138" height="81" y="233" clip-path="url(#clipPath2)"/>
      <text x="756.0989" font-size="13px" y="250.5684" clip-path="url(#clipPath4)" font-family="sans-serif" stroke="none" font-weight="bold" xml:space="preserve">Item</text>
      <line stroke-linecap="square" clip-path="url(#clipPath4)" fill="none" x1="703" x2="839" y1="258" y2="258" stroke-miterlimit="10"/>
      <text x="707" xml:space="preserve" y="274.9121" clip-path="url(#clipPath4)" font-family="sans-serif" stroke="none">/item-id</text>
      <text x="707" xml:space="preserve" y="289.0449" clip-path="url(#clipPath4)" font-family="sans-serif" stroke="none">/local-item-uri</text>
      <text x="707" xml:space="preserve" y="303.1777" clip-path="url(#clipPath4)" font-family="sans-serif" stroke="none">item-location</text>
      <text x="707" xml:space="preserve" y="317.3105" clip-path="url(#clipPath4)" font-family="sans-serif" stroke="none"> </text>
      <text x="707" xml:space="preserve" y="331.4434" clip-path="url(#clipPath4)" font-family="sans-serif" stroke="none"> </text>
      <line stroke-linecap="square" clip-path="url(#clipPath4)" fill="none" x1="703" x2="839" y1="338" y2="338" stroke-miterlimit="10"/>
      <rect fill="none" x="528" width="177" height="63" y="375" clip-path="url(#clipPath2)"/>
      <text x="604.2966" font-size="13px" y="392.5684" clip-path="url(#clipPath5)" font-family="sans-serif" stroke="none" font-weight="bold" xml:space="preserve">Bag</text>
      <line stroke-linecap="square" clip-path="url(#clipPath5)" fill="none" x1="529" x2="704" y1="400" y2="400" stroke-miterlimit="10"/>
      <text x="533" xml:space="preserve" y="416.9121" clip-path="url(#clipPath5)" font-family="sans-serif" stroke="none">/bag-id &lt; item-id</text>
      <text x="533" xml:space="preserve" y="431.0449" clip-path="url(#clipPath5)" font-family="sans-serif" stroke="none">/is-active ( = true|false)</text>
      <text x="533" xml:space="preserve" y="445.1777" clip-path="url(#clipPath5)" font-family="sans-serif" stroke="none"> </text>
      <text x="533" xml:space="preserve" y="459.3105" clip-path="url(#clipPath5)" font-family="sans-serif" stroke="none"> </text>
      <text x="533" xml:space="preserve" y="473.4434" clip-path="url(#clipPath5)" font-family="sans-serif" stroke="none"> </text>
      <line stroke-linecap="square" clip-path="url(#clipPath5)" fill="none" x1="529" x2="704" y1="480" y2="480" stroke-miterlimit="10"/>
      <rect fill="none" x="617" width="177" height="81" y="521" clip-path="url(#clipPath2)"/>
      <text x="693.7314" font-size="13px" y="538.5684" clip-path="url(#clipPath6)" font-family="sans-serif" stroke="none" font-weight="bold" xml:space="preserve">File</text>
      <line stroke-linecap="square" clip-path="url(#clipPath6)" fill="none" x1="618" x2="793" y1="546" y2="546" stroke-miterlimit="10"/>
      <text x="622" xml:space="preserve" y="562.9121" clip-path="url(#clipPath6)" font-family="sans-serif" stroke="none">/file-id &lt; item-id</text>
      <text x="622" xml:space="preserve" y="577.0449" clip-path="url(#clipPath6)" font-family="sans-serif" stroke="none">/path-in-bag</text>
      <text x="622" xml:space="preserve" y="591.1777" clip-path="url(#clipPath6)" font-family="sans-serif" stroke="none">/is-payload ( = true|false )</text>
      <text x="622" xml:space="preserve" y="605.3105" clip-path="url(#clipPath6)" font-family="sans-serif" stroke="none"> </text>
      <text x="622" xml:space="preserve" y="619.4434" clip-path="url(#clipPath6)" font-family="sans-serif" stroke="none"> </text>
      <line stroke-linecap="square" clip-path="url(#clipPath6)" fill="none" x1="618" x2="793" y1="626" y2="626" stroke-miterlimit="10"/>
      <path fill="none" d="M430 457 L592 457 L592 472 L607 472 L607 494 L430 494 Z" clip-path="url(#clipPath2)"/>
      <path fill="none" d="M592 457 L592 472 L607 472 Z" clip-path="url(#clipPath2)" fill-rule="evenodd"/>
      <text x="452.6406" xml:space="preserve" y="480.0352" clip-path="url(#clipPath2)" font-family="sans-serif" stroke="none">must be virtually-valid</text>
      <path fill="none" d="M863.5 141.8672 L1231.5 141.8672 L1231.5 156.8672 L1246.5 156.8672 L1246.5 242.8672 L863.5 242.8672 Z" clip-path="url(#clipPath2)"/>
      <path fill="none" d="M1231.5 141.8672 L1231.5 156.8672 L1246.5 156.8672 Z" clip-path="url(#clipPath2)" fill-rule="evenodd"/>
      <text x="869.5" xml:space="preserve" y="159.4688" clip-path="url(#clipPath2)" font-family="sans-serif" stroke="none">IDENTIFIERS</text>
      <text x="869.5" xml:space="preserve" y="173.6016" clip-path="url(#clipPath2)" font-family="sans-serif" stroke="none"> </text>
      <text x="869.5" xml:space="preserve" y="187.7344" clip-path="url(#clipPath2)" font-family="sans-serif" stroke="none">item-id = bag-id | file-id</text>
      <text x="869.5" xml:space="preserve" y="201.8672" clip-path="url(#clipPath2)" font-family="sans-serif" stroke="none">bag-id = UUID</text>
      <text x="869.5" xml:space="preserve" y="216" clip-path="url(#clipPath2)" font-family="sans-serif" stroke="none">file-id = bag-id / percent-encoded ( path-in-bag )</text>
      <text x="869.5" xml:space="preserve" y="230.1328" clip-path="url(#clipPath2)" font-family="sans-serif" stroke="none">local-item-uri = "http://localhost/" + item-id</text>
      <path fill="none" d="M863.5 261.8672 L1231.5 261.8672 L1231.5 276.8672 L1246.5 276.8672 L1246.5 351.8672 L863.5 351.8672 Z" clip-path="url(#clipPath2)"/>
      <path fill="none" d="M1231.5 261.8672 L1231.5 276.8672 L1246.5 276.8672 Z" clip-path="url(#clipPath2)" fill-rule="evenodd"/>
      <text x="869.5" xml:space="preserve" y="279.4688" clip-path="url(#clipPath2)" font-family="sans-serif" stroke="none">LOCATIONS</text>
      <text x="869.5" xml:space="preserve" y="293.6016" clip-path="url(#clipPath2)" font-family="sans-serif" stroke="none"> </text>
      <text x="869.5" xml:space="preserve" y="307.7344" clip-path="url(#clipPath2)" font-family="sans-serif" stroke="none">item-location = bag-location | file-location</text>
      <text x="869.5" xml:space="preserve" y="321.8672" clip-path="url(#clipPath2)" font-family="sans-serif" stroke="none">bag-location = base-dir / slashed ( bag-id ) / [.] bag</text>
      <text x="869.5" xml:space="preserve" y="336" clip-path="url(#clipPath2)" font-family="sans-serif" stroke="none">file-location = bag-location / path-in-bag</text>
      <text x="869.5" xml:space="preserve" y="350.1328" clip-path="url(#clipPath2)" font-family="sans-serif" stroke="none"> </text>
      <path fill="none" d="M863.5 370.8672 L1231.5 370.8672 L1231.5 385.8672 L1246.5 385.8672 L1246.5 525 L863.5 525 Z" clip-path="url(#clipPath2)"/>
      <path fill="none" d="M1231.5 370.8672 L1231.5 385.8672 L1246.5 385.8672 Z" clip-path="url(#clipPath2)" fill-rule="evenodd"/>
      <text x="869.5" xml:space="preserve" y="388.4688" clip-path="url(#clipPath2)" font-family="sans-serif" stroke="none">OPERATIONS</text>
      <text x="869.5" xml:space="preserve" y="402.6016" clip-path="url(#clipPath2)" font-family="sans-serif" stroke="none"> </text>
      <text x="869.5" xml:space="preserve" y="416.7344" clip-path="url(#clipPath2)" font-family="sans-serif" stroke="none">Core:</text>
      <text x="869.5" xml:space="preserve" y="430.8672" clip-path="url(#clipPath2)" font-family="sans-serif" stroke="none">ADD ( bag, uuid )</text>
      <text x="869.5" xml:space="preserve" y="445" clip-path="url(#clipPath2)" font-family="sans-serif" stroke="none">GET ( item-id )</text>
      <text x="869.5" xml:space="preserve" y="459.1328" clip-path="url(#clipPath2)" font-family="sans-serif" stroke="none">ENUM ( filter=active|inactive|all, [bag-id] )</text>
      <text x="869.5" xml:space="preserve" y="473.2656" clip-path="url(#clipPath2)" font-family="sans-serif" stroke="none"> </text>
      <text x="869.5" xml:space="preserve" y="487.3984" clip-path="url(#clipPath2)" font-family="sans-serif" stroke="none">Extra:</text>
      <text x="869.5" xml:space="preserve" y="501.5312" clip-path="url(#clipPath2)" font-family="sans-serif" stroke="none">DEACTIVATE | REACTIVATE ( bag-id )</text>
      <text x="869.5" xml:space="preserve" y="515.6641" clip-path="url(#clipPath2)" font-family="sans-serif" stroke="none">ERASE ( file-id, eraser, reason )</text>
      <text x="869.5" xml:space="preserve" y="529.7969" clip-path="url(#clipPath2)" font-family="sans-serif" stroke="none"> </text>
      <text x="869.5" xml:space="preserve" y="543.9297" clip-path="url(#clipPath2)" font-family="sans-serif" stroke="none"> </text>
      <text x="603.7168" xml:space="preserve" y="366.6016" clip-path="url(#clipPath2)" font-family="sans-serif" stroke="none">*</text>
      <text x="624.5176" xml:space="preserve" y="512.4688" clip-path="url(#clipPath2)" font-family="sans-serif" stroke="none">2..*</text>
      <rect fill="none" x="617" width="177" height="37" y="647" clip-path="url(#clipPath2)"/>
      <text x="674.479" font-size="13px" y="664.5684" clip-path="url(#clipPath7)" font-family="sans-serif" stroke="none" font-weight="bold" xml:space="preserve">Directory</text>
      <path fill="none" d="M616.5 211.8708 L616.5 375.0447" clip-path="url(#clipPath2)"/>
      <path fill="white" d="M616.5 204.8708 L621.5 211.8708 L616.5 218.8708 L611.5 211.8708 Z" clip-path="url(#clipPath2)" stroke="none"/>
      <path fill="none" d="M616.5 204.8708 L621.5 211.8708 L616.5 218.8708 L611.5 211.8708 Z" clip-path="url(#clipPath2)"/>
      <path fill="none" d="M668 375.0083 L668 349 L747.9135 349 L747.9135 329.0107" clip-path="url(#clipPath2)"/>
      <path fill="white" d="M747.9135 314.0107 L741.9135 330.0107 L753.9135 330.0107 Z" clip-path="url(#clipPath2)" stroke="none"/>
      <path fill="none" d="M747.9135 314.0107 L741.9135 330.0107 L753.9135 330.0107 Z" clip-path="url(#clipPath2)"/>
      <path fill="none" d="M652 444.9926 L652 521.0196" clip-path="url(#clipPath2)"/>
      <path d="M652 437.9926 L657 444.9926 L652 451.9926 L647 444.9926 Z" clip-path="url(#clipPath2)" stroke="none"/>
      <path fill="none" d="M771 328.9972 L771 520.9796" clip-path="url(#clipPath2)"/>
      <path fill="white" d="M771 313.9972 L765 329.9972 L777 329.9972 Z" clip-path="url(#clipPath2)" stroke="none"/>
      <path fill="none" d="M771 313.9972 L765 329.9972 L777 329.9972 Z" clip-path="url(#clipPath2)"/>
      <path fill="none" stroke-dasharray="0,4" d="M544.7944 456.9866 L571.7891 437.9802" stroke-dashoffset="2" clip-path="url(#clipPath2)" stroke-linecap="round"/>
      <path fill="none" d="M705.5 646.9902 L705.5 617.0327" clip-path="url(#clipPath2)"/>
      <path fill="white" d="M705.5 602.0327 L699.5 618.0327 L711.5 618.0327 Z" clip-path="url(#clipPath2)" stroke="none"/>
      <path fill="none" d="M705.5 602.0327 L699.5 618.0327 L711.5 618.0327 Z" clip-path="url(#clipPath2)"/>
    </g>
  </g>
</svg>
