<?xml version="1.0" encoding="UTF-8"?><svg xmlns="http://www.w3.org/2000/svg" xmlns:xlink="http://www.w3.org/1999/xlink" fill-opacity="1" color-rendering="auto" color-interpolation="auto" text-rendering="auto" stroke="black" stroke-linecap="square" width="811" stroke-miterlimit="10" shape-rendering="auto" stroke-opacity="1" fill="black" stroke-dasharray="none" font-weight="normal" stroke-width="1" height="611" font-family="'Dialog'" font-style="normal" stroke-linejoin="miter" font-size="12px" stroke-dashoffset="0" image-rendering="auto">
  <!--Generated by ySVG 2.5-->
  <defs id="genericDefs"/>
  <g>
    <defs id="defs1">
      <clipPath clipPathUnits="userSpaceOnUse" id="clipPath1">
        <path d="M0 0 L811 0 L811 611 L0 611 L0 0 Z"/>
      </clipPath>
      <clipPath clipPathUnits="userSpaceOnUse" id="clipPath2">
        <path d="M429 126 L1240 126 L1240 737 L429 737 L429 126 Z"/>
      </clipPath>
      <clipPath clipPathUnits="userSpaceOnUse" id="clipPath3">
        <path d="M483 141 L483 204 L749 204 L749 141 Z"/>
      </clipPath>
      <clipPath clipPathUnits="userSpaceOnUse" id="clipPath4">
        <path d="M702 233 L702 301 L840 301 L840 233 Z"/>
      </clipPath>
      <clipPath clipPathUnits="userSpaceOnUse" id="clipPath5">
        <path d="M528 375 L528 456 L715 456 L715 375 Z"/>
      </clipPath>
      <clipPath clipPathUnits="userSpaceOnUse" id="clipPath6">
        <path d="M617 521 L617 616 L794 616 L794 521 Z"/>
      </clipPath>
      <clipPath clipPathUnits="userSpaceOnUse" id="clipPath7">
        <path d="M497 659 L497 722 L674 722 L674 659 Z"/>
      </clipPath>
      <clipPath clipPathUnits="userSpaceOnUse" id="clipPath8">
        <path d="M737 659 L737 722 L914 722 L914 659 Z"/>
      </clipPath>
    </defs>
    <g fill="white" text-rendering="geometricPrecision" shape-rendering="geometricPrecision" transform="translate(-429,-126)" stroke="white">
      <rect x="429" width="811" height="611" y="126" clip-path="url(#clipPath2)" stroke="none"/>
    </g>
    <g text-rendering="geometricPrecision" stroke-miterlimit="1.45" shape-rendering="geometricPrecision" transform="matrix(1,0,0,1,-429,-126)" stroke-linecap="butt">
      <rect fill="none" x="483.5" width="266" height="63" y="141.8672" clip-path="url(#clipPath2)"/>
      <text x="587.0342" font-size="13px" y="159.4355" clip-path="url(#clipPath3)" font-family="sans-serif" stroke="none" font-weight="bold" xml:space="preserve">BagStore</text>
      <line stroke-linecap="square" clip-path="url(#clipPath3)" fill="none" x1="484" x2="748" y1="167" y2="167" stroke-miterlimit="10"/>
      <text x="488.5" xml:space="preserve" y="183.7793" clip-path="url(#clipPath3)" font-family="sans-serif" stroke="none">base-dir</text>
      <text x="488.5" xml:space="preserve" y="197.9121" clip-path="url(#clipPath3)" font-family="sans-serif" stroke="none">slash-pattern</text>
      <line stroke-linecap="square" clip-path="url(#clipPath3)" fill="none" x1="484" x2="748" y1="205" y2="205" stroke-miterlimit="10"/>
      <rect fill="none" x="702" width="138" height="68" y="233" clip-path="url(#clipPath2)"/>
      <text x="756.0989" font-size="13px" y="250.5684" clip-path="url(#clipPath4)" font-family="sans-serif" stroke="none" font-weight="bold" xml:space="preserve">Item</text>
      <line stroke-linecap="square" clip-path="url(#clipPath4)" fill="none" x1="703" x2="839" y1="258" y2="258" stroke-miterlimit="10"/>
      <text x="707" xml:space="preserve" y="274.9121" clip-path="url(#clipPath4)" font-family="sans-serif" stroke="none">item-location</text>
      <text x="707" xml:space="preserve" y="289.0449" clip-path="url(#clipPath4)" font-family="sans-serif" stroke="none">/item-id</text>
      <text x="707" xml:space="preserve" y="303.1777" clip-path="url(#clipPath4)" font-family="sans-serif" stroke="none"> </text>
      <text x="707" xml:space="preserve" y="317.3105" clip-path="url(#clipPath4)" font-family="sans-serif" stroke="none"> </text>
      <text x="707" xml:space="preserve" y="331.4434" clip-path="url(#clipPath4)" font-family="sans-serif" stroke="none"> </text>
      <line stroke-linecap="square" clip-path="url(#clipPath4)" fill="none" x1="703" x2="839" y1="338" y2="338" stroke-miterlimit="10"/>
      <rect fill="none" x="528" width="187" height="81" y="375" clip-path="url(#clipPath2)"/>
      <text x="609.2966" font-size="13px" y="392.5684" clip-path="url(#clipPath5)" font-family="sans-serif" stroke="none" font-weight="bold" xml:space="preserve">Bag</text>
      <line stroke-linecap="square" clip-path="url(#clipPath5)" fill="none" x1="529" x2="714" y1="400" y2="400" stroke-miterlimit="10"/>
      <text x="533" xml:space="preserve" y="416.9121" clip-path="url(#clipPath5)" font-family="sans-serif" stroke="none">bag-location &lt; item-location</text>
      <text x="533" xml:space="preserve" y="431.0449" clip-path="url(#clipPath5)" font-family="sans-serif" stroke="none">/bag-id &lt; item-id</text>
      <text x="533" xml:space="preserve" y="445.1777" clip-path="url(#clipPath5)" font-family="sans-serif" stroke="none">/is-active ( = true | false )</text>
      <text x="533" xml:space="preserve" y="459.3105" clip-path="url(#clipPath5)" font-family="sans-serif" stroke="none"> </text>
      <text x="533" xml:space="preserve" y="473.4434" clip-path="url(#clipPath5)" font-family="sans-serif" stroke="none"> </text>
      <text x="533" xml:space="preserve" y="487.5762" clip-path="url(#clipPath5)" font-family="sans-serif" stroke="none"> </text>
      <line stroke-linecap="square" clip-path="url(#clipPath5)" fill="none" x1="529" x2="714" y1="495" y2="495" stroke-miterlimit="10"/>
      <rect fill="none" x="617" width="177" height="95" y="521" clip-path="url(#clipPath2)"/>
      <text x="693.7314" font-size="13px" y="538.5684" clip-path="url(#clipPath6)" font-family="sans-serif" stroke="none" font-weight="bold" xml:space="preserve">File</text>
      <line stroke-linecap="square" clip-path="url(#clipPath6)" fill="none" x1="618" x2="793" y1="546" y2="546" stroke-miterlimit="10"/>
      <text x="622" xml:space="preserve" y="562.9121" clip-path="url(#clipPath6)" font-family="sans-serif" stroke="none">path-in-bag</text>
      <text x="622" xml:space="preserve" y="577.0449" clip-path="url(#clipPath6)" font-family="sans-serif" stroke="none">/file-location</text>
      <text x="622" xml:space="preserve" y="591.1777" clip-path="url(#clipPath6)" font-family="sans-serif" stroke="none">/file-id &lt; item-id</text>
      <text x="622" xml:space="preserve" y="605.3105" clip-path="url(#clipPath6)" font-family="sans-serif" stroke="none">/is-payload ( = true | false )</text>
      <text x="622" xml:space="preserve" y="619.4434" clip-path="url(#clipPath6)" font-family="sans-serif" stroke="none"> </text>
      <text x="622" xml:space="preserve" y="633.5762" clip-path="url(#clipPath6)" font-family="sans-serif" stroke="none"> </text>
      <line stroke-linecap="square" clip-path="url(#clipPath6)" fill="none" x1="618" x2="793" y1="641" y2="641" stroke-miterlimit="10"/>
      <path fill="none" d="M444.7168 298 L586.7168 298 L586.7168 313 L601.7168 313 L601.7168 334 L444.7168 334 Z" clip-path="url(#clipPath2)"/>
      <path fill="none" d="M586.7168 298 L586.7168 313 L601.7168 313 Z" clip-path="url(#clipPath2)" fill-rule="evenodd"/>
      <text x="450.7168" xml:space="preserve" y="320.5352" clip-path="url(#clipPath2)" font-family="sans-serif" stroke="none">must be virtually-valid</text>
      <path fill="none" d="M863.5 141.8672 L1209.5 141.8672 L1209.5 156.8672 L1224.5 156.8672 L1224.5 242.8672 L863.5 242.8672 Z" clip-path="url(#clipPath2)"/>
      <path fill="none" d="M1209.5 141.8672 L1209.5 156.8672 L1224.5 156.8672 Z" clip-path="url(#clipPath2)" fill-rule="evenodd"/>
      <text x="869.5" xml:space="preserve" y="159.4688" clip-path="url(#clipPath2)" font-family="sans-serif" stroke="none">IDENTIFIERS</text>
      <text x="869.5" xml:space="preserve" y="173.6016" clip-path="url(#clipPath2)" font-family="sans-serif" stroke="none"> </text>
      <text x="869.5" xml:space="preserve" y="187.7344" clip-path="url(#clipPath2)" font-family="sans-serif" stroke="none">item-id = bag-id | file-id</text>
      <text x="869.5" xml:space="preserve" y="201.8672" clip-path="url(#clipPath2)" font-family="sans-serif" stroke="none">bag-id = UUID</text>
      <text x="869.5" xml:space="preserve" y="216" clip-path="url(#clipPath2)" font-family="sans-serif" stroke="none">file-id = bag-id / percent-encoded ( path-in-bag )</text>
      <text x="869.5" xml:space="preserve" y="230.1328" clip-path="url(#clipPath2)" font-family="sans-serif" stroke="none">local-file-uri = "http://localhost/" + file-id</text>
      <path fill="none" d="M863.5 261.8672 L1209.5 261.8672 L1209.5 276.8672 L1224.5 276.8672 L1224.5 376.1328 L863.5 376.1328 Z" clip-path="url(#clipPath2)"/>
      <path fill="none" d="M1209.5 261.8672 L1209.5 276.8672 L1224.5 276.8672 Z" clip-path="url(#clipPath2)" fill-rule="evenodd"/>
      <text x="869.5" xml:space="preserve" y="279.4688" clip-path="url(#clipPath2)" font-family="sans-serif" stroke="none">LOCATIONS</text>
      <text x="869.5" xml:space="preserve" y="293.6016" clip-path="url(#clipPath2)" font-family="sans-serif" stroke="none"> </text>
      <text x="869.5" xml:space="preserve" y="307.7344" clip-path="url(#clipPath2)" font-family="sans-serif" stroke="none">item-location = bag-location | file-location</text>
      <text x="869.5" xml:space="preserve" y="321.8672" clip-path="url(#clipPath2)" font-family="sans-serif" stroke="none">bag-location = base-dir / slashed ( bag-id ) / [.] bag</text>
      <text x="869.5" xml:space="preserve" y="336" clip-path="url(#clipPath2)" font-family="sans-serif" stroke="none">file-location = bag-location / path-in-bag</text>
      <text x="869.5" xml:space="preserve" y="350.1328" clip-path="url(#clipPath2)" font-family="sans-serif" stroke="none">file-data-location = </text>
      <text x="869.5" xml:space="preserve" y="364.2656" clip-path="url(#clipPath2)" font-family="sans-serif" stroke="none">  completed ( unserialized ( bag-location ) ) / path-in-bag</text>
      <path fill="none" d="M863.5 395.1328 L1209.5 395.1328 L1209.5 410.1328 L1224.5 410.1328 L1224.5 549.2656 L863.5 549.2656 Z" clip-path="url(#clipPath2)"/>
      <path fill="none" d="M1209.5 395.1328 L1209.5 410.1328 L1224.5 410.1328 Z" clip-path="url(#clipPath2)" fill-rule="evenodd"/>
      <text x="869.5" xml:space="preserve" y="412.7344" clip-path="url(#clipPath2)" font-family="sans-serif" stroke="none">OPERATIONS</text>
      <text x="869.5" xml:space="preserve" y="426.8672" clip-path="url(#clipPath2)" font-family="sans-serif" stroke="none"> </text>
      <text x="869.5" xml:space="preserve" y="441" clip-path="url(#clipPath2)" font-family="sans-serif" stroke="none">Core:</text>
      <text x="869.5" xml:space="preserve" y="455.1328" clip-path="url(#clipPath2)" font-family="sans-serif" stroke="none">ADD ( bag, uuid )</text>
      <text x="869.5" xml:space="preserve" y="469.2656" clip-path="url(#clipPath2)" font-family="sans-serif" stroke="none">GET ( item-id )</text>
      <text x="869.5" xml:space="preserve" y="483.3984" clip-path="url(#clipPath2)" font-family="sans-serif" stroke="none">ENUM</text>
      <text x="869.5" xml:space="preserve" y="497.5312" clip-path="url(#clipPath2)" font-family="sans-serif" stroke="none"> </text>
      <text x="869.5" xml:space="preserve" y="511.6641" clip-path="url(#clipPath2)" font-family="sans-serif" stroke="none">Extra:</text>
      <text x="869.5" xml:space="preserve" y="525.7969" clip-path="url(#clipPath2)" font-family="sans-serif" stroke="none">DEACTIVATE | REACTIVATE ( bag-id )</text>
      <text x="869.5" xml:space="preserve" y="539.9297" clip-path="url(#clipPath2)" font-family="sans-serif" stroke="none">ERASE ( file-id, eraser, reason )</text>
      <text x="869.5" xml:space="preserve" y="554.0625" clip-path="url(#clipPath2)" font-family="sans-serif" stroke="none"> </text>
      <text x="869.5" xml:space="preserve" y="568.1953" clip-path="url(#clipPath2)" font-family="sans-serif" stroke="none"> </text>
      <text x="603.7168" xml:space="preserve" y="366.6016" clip-path="url(#clipPath2)" font-family="sans-serif" stroke="none">*</text>
      <text x="624.5176" xml:space="preserve" y="512.4688" clip-path="url(#clipPath2)" font-family="sans-serif" stroke="none">2..*</text>
      <rect fill="none" x="497" width="177" height="63" y="659" clip-path="url(#clipPath2)"/>
      <text x="554.479" font-size="13px" y="676.5684" clip-path="url(#clipPath7)" font-family="sans-serif" stroke="none" font-weight="bold" xml:space="preserve">Directory</text>
      <rect fill="none" x="737" width="177" height="63" y="659" clip-path="url(#clipPath2)"/>
      <text x="787.9917" font-size="13px" y="676.5684" clip-path="url(#clipPath8)" font-family="sans-serif" stroke="none" font-weight="bold" xml:space="preserve">RegularFile</text>
      <line stroke-linecap="square" clip-path="url(#clipPath8)" fill="none" x1="738" x2="913" y1="684" y2="684" stroke-miterlimit="10"/>
      <text x="742" xml:space="preserve" y="700.9121" clip-path="url(#clipPath8)" font-family="sans-serif" stroke="none">/local-file-uri</text>
      <text x="742" xml:space="preserve" y="715.0449" clip-path="url(#clipPath8)" font-family="sans-serif" stroke="none">/file-data-location</text>
      <text x="742" xml:space="preserve" y="729.1777" clip-path="url(#clipPath8)" font-family="sans-serif" stroke="none"> </text>
      <text x="742" xml:space="preserve" y="743.3105" clip-path="url(#clipPath8)" font-family="sans-serif" stroke="none"> </text>
      <line stroke-linecap="square" clip-path="url(#clipPath8)" fill="none" x1="738" x2="913" y1="750" y2="750" stroke-miterlimit="10"/>
      <path fill="none" d="M616.5 211.844 L616.5 375.003" clip-path="url(#clipPath2)"/>
      <path d="M616.5 204.844 L621.5 211.844 L616.5 218.844 L611.5 211.844 Z" clip-path="url(#clipPath2)" stroke="none"/>
      <path fill="none" d="M675.9096 375.0203 L675.9096 349 L747.9135 349 L747.9135 316.0058" clip-path="url(#clipPath2)"/>
      <path fill="white" d="M747.9135 301.0058 L741.9135 317.0058 L753.9135 317.0058 Z" clip-path="url(#clipPath2)" stroke="none"/>
      <path fill="none" d="M747.9135 301.0058 L741.9135 317.0058 L753.9135 317.0058 Z" clip-path="url(#clipPath2)"/>
      <path fill="none" d="M652 462.9965 L652 521.0009" clip-path="url(#clipPath2)"/>
      <path d="M652 455.9965 L657 462.9965 L652 469.9965 L647 462.9965 Z" clip-path="url(#clipPath2)" stroke="none"/>
      <path fill="none" d="M771 316.0022 L771 520.9767" clip-path="url(#clipPath2)"/>
      <path fill="white" d="M771 301.0022 L765 317.0022 L777 317.0022 Z" clip-path="url(#clipPath2)" stroke="none"/>
      <path fill="none" d="M771 301.0022 L765 317.0022 L777 317.0022 Z" clip-path="url(#clipPath2)"/>
      <path fill="none" stroke-dasharray="0,4" d="M540.997 334.0004 L581.504 375.0089" stroke-dashoffset="2" clip-path="url(#clipPath2)" stroke-linecap="round"/>
      <path fill="none" d="M616.4668 659.0171 L648.2694 626.6844" clip-path="url(#clipPath2)"/>
      <path fill="white" d="M658.788 615.9905 L643.2906 623.1899 L651.8458 631.6048 Z" clip-path="url(#clipPath2)" stroke="none"/>
      <path fill="none" d="M658.788 615.9905 L643.2906 623.1899 L651.8458 631.6048 Z" clip-path="url(#clipPath2)"/>
      <path fill="none" d="M794.5332 659.0171 L762.7306 626.6844" clip-path="url(#clipPath2)"/>
      <path fill="white" d="M752.212 615.9905 L759.1542 631.6048 L767.7094 623.1899 Z" clip-path="url(#clipPath2)" stroke="none"/>
      <path fill="none" d="M752.212 615.9905 L759.1542 631.6048 L767.7094 623.1899 Z" clip-path="url(#clipPath2)"/>
    </g>
  </g>
</svg>
